# Blender v2.82 (sub 7) OBJ File: 'tile.blend'
# www.blender.org
mtllib tile.mtl.mtl
o 1M-B_Cube.007
v -0.275000 -0.175000 0.379055
v -0.300000 -0.175000 0.354055
v -0.275000 -0.200000 0.354055
v -0.292678 -0.175000 0.371733
v -0.289434 -0.189434 0.368489
v -0.292678 -0.192678 0.354055
v -0.275000 -0.192678 0.371733
v -0.300000 -0.175000 -0.395945
v -0.275000 -0.175000 -0.420945
v -0.275000 -0.200000 -0.395945
v -0.292678 -0.175000 -0.413622
v -0.289434 -0.189434 -0.410378
v -0.275000 -0.192678 -0.413622
v -0.292678 -0.192678 -0.395945
v 0.275000 -0.175000 0.379055
v 0.275000 -0.200000 0.354055
v 0.300000 -0.175000 0.354055
v 0.275000 -0.192678 0.371733
v 0.289434 -0.189434 0.368489
v 0.292678 -0.192678 0.354055
v 0.292678 -0.175000 0.371733
v 0.275000 -0.175000 -0.420945
v 0.300000 -0.175000 -0.395945
v 0.275000 -0.200000 -0.395945
v 0.292677 -0.175000 -0.413623
v 0.289434 -0.189434 -0.410379
v 0.292677 -0.192678 -0.395945
v 0.275000 -0.192678 -0.413623
v -0.275000 0.175000 0.379055
v -0.275000 0.200000 0.354055
v -0.300000 0.175000 0.354055
v -0.275000 0.192678 0.371733
v -0.289434 0.189434 0.368489
v -0.292678 0.192678 0.354055
v -0.292678 0.175000 0.371733
v -0.275000 0.175000 -0.420945
v -0.300000 0.175000 -0.395945
v -0.275000 0.200000 -0.395945
v -0.292678 0.175000 -0.413622
v -0.289434 0.189434 -0.410378
v -0.292678 0.192678 -0.395945
v -0.275000 0.192678 -0.413622
v 0.275000 0.175000 0.379055
v 0.300000 0.175000 0.354055
v 0.275000 0.200000 0.354055
v 0.292678 0.175000 0.371733
v 0.289434 0.189434 0.368489
v 0.292678 0.192678 0.354055
v 0.275000 0.192678 0.371733
v 0.275000 0.175000 -0.420945
v 0.275000 0.200000 -0.395945
v 0.300000 0.175000 -0.395945
v 0.275000 0.192678 -0.413623
v 0.289433 0.189434 -0.410379
v 0.292677 0.192678 -0.395945
v 0.292677 0.175000 -0.413623
vt 0.031466 0.212364
vt 0.034578 0.212364
vt 0.034578 0.431114
vt 0.031466 0.431114
vt 0.927077 0.057152
vt 0.927077 0.936353
vt 0.072923 0.936352
vt 0.072923 0.057152
vt 0.865868 0.022758
vt 0.865868 0.028086
vt 0.133328 0.028086
vt 0.133328 0.022758
vt 0.120834 0.969088
vt 0.120834 0.954244
vt 0.879166 0.954244
vt 0.879166 0.969088
vt 0.961637 0.068071
vt 0.968434 0.068071
vt 0.968434 0.438473
vt 0.961637 0.438473
vt 0.107805 0.020548
vt 0.072177 0.020548
vt 0.072177 0.020304
vt 0.107805 0.020126
vt 0.031466 0.446739
vt 0.031406 0.446739
vt 0.031362 0.431114
vt 0.120834 0.969583
vt 0.100933 0.969583
vt 0.086364 0.969088
vt 0.034682 0.431114
vt 0.034682 0.440135
vt 0.034578 0.446739
vt 0.133328 0.028467
vt 0.114104 0.028467
vt 0.100031 0.028086
vt 0.086364 0.954244
vt 0.086364 0.953958
vt 0.120834 0.953749
vt 0.891636 0.020548
vt 0.891636 0.020126
vt 0.912206 0.020126
vt 0.927265 0.020548
vt 0.913636 0.969088
vt 0.913636 0.969374
vt 0.879166 0.969583
vt 0.961411 0.068071
vt 0.961411 0.052795
vt 0.961637 0.041613
vt 0.899165 0.028086
vt 0.899165 0.028306
vt 0.865868 0.028467
vt 0.968434 0.041613
vt 0.968565 0.041613
vt 0.968660 0.068071
vt 0.879166 0.953749
vt 0.899067 0.953749
vt 0.913636 0.954244
vt 0.107805 0.026455
vt 0.107805 0.026877
vt 0.087235 0.026877
vt 0.072177 0.026455
vt 0.034098 0.057152
vt 0.034098 0.040232
vt 0.072923 0.027845
vt 0.031362 0.212364
vt 0.031362 0.203343
vt 0.031466 0.196739
vt 0.100031 0.022758
vt 0.100031 0.022538
vt 0.133328 0.022377
vt 0.034578 0.196739
vt 0.034638 0.196739
vt 0.034682 0.212364
vt 0.072923 0.965659
vt 0.050507 0.965659
vt 0.034098 0.936352
vt 0.891636 0.026455
vt 0.927264 0.026455
vt 0.927264 0.026699
vt 0.891636 0.026877
vt 0.961637 0.464931
vt 0.961506 0.464931
vt 0.961411 0.438473
vt 0.927077 0.027845
vt 0.949493 0.027845
vt 0.965902 0.057152
vt 0.865868 0.022377
vt 0.885092 0.022377
vt 0.899165 0.022758
vt 0.965902 0.936353
vt 0.965902 0.953273
vt 0.927077 0.965659
vt 0.968660 0.438473
vt 0.968660 0.453748
vt 0.968434 0.464931
vn -0.9673 0.1794 0.1794
vn -0.9673 0.1794 -0.1794
vn -0.9673 -0.1794 -0.1794
vn -0.9673 -0.1794 0.1794
vn 0.1794 0.9673 0.1794
vn 0.1794 0.9673 -0.1794
vn -0.1794 0.9673 -0.1794
vn -0.1794 0.9673 0.1794
vn 0.1794 0.1794 -0.9673
vn 0.1794 -0.1794 -0.9673
vn -0.1794 -0.1794 -0.9673
vn -0.1794 0.1794 -0.9673
vn -0.1794 -0.9673 0.1794
vn -0.1794 -0.9673 -0.1794
vn 0.1794 -0.9673 -0.1794
vn 0.1794 -0.9673 0.1794
vn 0.9673 -0.1794 0.1794
vn 0.9673 -0.1794 -0.1794
vn 0.9673 0.1794 -0.1794
vn 0.9673 0.1794 0.1794
vn -0.1794 -0.1794 0.9673
vn -0.6965 -0.1726 0.6965
vn -0.5773 -0.5773 0.5773
vn -0.1726 -0.6965 0.6965
vn -0.6965 -0.6965 0.1726
vn -0.6965 -0.1726 -0.6965
vn -0.5773 -0.5773 -0.5773
vn -0.6965 -0.6965 -0.1726
vn -0.1726 -0.6965 -0.6965
vn 0.1794 -0.1794 0.9673
vn 0.1726 -0.6965 0.6965
vn 0.5773 -0.5773 0.5773
vn 0.6965 -0.1726 0.6965
vn 0.6965 -0.6965 0.1726
vn 0.6965 -0.1726 -0.6965
vn 0.5773 -0.5773 -0.5773
vn 0.1726 -0.6965 -0.6965
vn 0.6965 -0.6965 -0.1726
vn -0.1794 0.1794 0.9673
vn -0.1726 0.6965 0.6965
vn -0.5773 0.5773 0.5773
vn -0.6965 0.1726 0.6965
vn -0.6965 0.6965 0.1726
vn -0.6965 0.1726 -0.6965
vn -0.5773 0.5773 -0.5773
vn -0.1726 0.6965 -0.6965
vn -0.6965 0.6965 -0.1726
vn 0.1794 0.1794 0.9673
vn 0.6965 0.1726 0.6965
vn 0.5773 0.5773 0.5773
vn 0.1726 0.6965 0.6965
vn 0.6965 0.6965 0.1726
vn 0.1726 0.6965 -0.6965
vn 0.5773 0.5773 -0.5773
vn 0.6965 0.1726 -0.6965
vn 0.6965 0.6965 -0.1726
usemtl 1M-B
s 1
f 31/1/1 37/2/2 8/3/3 2/4/4
f 45/5/5 51/6/6 38/7/7 30/8/8
f 50/9/9 22/10/10 9/11/11 36/12/12
f 3/13/13 10/14/14 24/15/15 16/16/16
f 17/17/17 23/18/18 52/19/19 44/20/20
f 1/21/21 4/22/22 5/23/23 7/24/24
f 2/4/4 6/25/25 5/26/23 4/27/22
f 3/13/13 7/28/24 5/29/23 6/30/25
f 8/3/3 11/31/26 12/32/27 14/33/28
f 9/11/11 13/34/29 12/35/27 11/36/26
f 10/14/14 14/37/28 12/38/27 13/39/29
f 15/40/30 18/41/31 19/42/32 21/43/33
f 16/16/16 20/44/34 19/45/32 18/46/31
f 17/17/17 21/47/33 19/48/32 20/49/34
f 22/10/10 25/50/35 26/51/36 28/52/37
f 23/18/18 27/53/38 26/54/36 25/55/35
f 24/15/15 28/56/37 26/57/36 27/58/38
f 29/59/39 32/60/40 33/61/41 35/62/42
f 30/8/8 34/63/43 33/64/41 32/65/40
f 31/1/1 35/66/42 33/67/41 34/68/43
f 36/12/12 39/69/44 40/70/45 42/71/46
f 37/2/2 41/72/47 40/73/45 39/74/44
f 38/7/7 42/75/46 40/76/45 41/77/47
f 43/78/48 46/79/49 47/80/50 49/81/51
f 44/20/20 48/82/52 47/83/50 46/84/49
f 45/5/5 49/85/51 47/86/50 48/87/52
f 50/9/9 53/88/53 54/89/54 56/90/55
f 51/6/6 55/91/56 54/92/54 53/93/53
f 52/19/19 56/94/55 54/95/54 55/96/56
f 15/40/30 1/21/21 7/24/24 18/41/31
f 18/46/31 7/28/24 3/13/13 16/16/16
f 2/4/4 8/3/3 14/33/28 6/25/25
f 6/30/25 14/37/28 10/14/14 3/13/13
f 9/11/11 22/10/10 28/52/37 13/34/29
f 13/39/29 28/56/37 24/15/15 10/14/14
f 23/18/18 17/17/17 20/49/34 27/53/38
f 27/58/38 20/44/34 16/16/16 24/15/15
f 43/78/48 15/40/30 21/43/33 46/79/49
f 46/84/49 21/47/33 17/17/17 44/20/20
f 22/10/10 50/9/9 56/90/55 25/50/35
f 25/55/35 56/94/55 52/19/19 23/18/18
f 51/6/6 45/5/5 48/87/52 55/91/56
f 55/96/56 48/82/52 44/20/20 52/19/19
f 29/59/39 43/78/48 49/81/51 32/60/40
f 32/65/40 49/85/51 45/5/5 30/8/8
f 50/9/9 36/12/12 42/71/46 53/88/53
f 53/93/53 42/75/46 38/7/7 51/6/6
f 37/2/2 31/1/1 34/68/43 41/72/47
f 41/77/47 34/63/43 30/8/8 38/7/7
f 1/21/21 29/59/39 35/62/42 4/22/22
f 4/27/22 35/66/42 31/1/1 2/4/4
f 36/12/12 9/11/11 11/36/26 39/69/44
f 39/74/44 11/31/26 8/3/3 37/2/2
f 15/40/30 43/78/48 29/59/39 1/21/21
